<?xml version="1.0" encoding="utf-8"?>
<?xml-stylesheet type="text/xsl" href="rss1.xsl"?>
<rss version="2.0" xmlns:atom="http://www.w3.org/2005/Atom" xmlns:content="http://purl.org/rss/1.0/modules/content/" xmlns:dc="http://purl.org/dc/elements/1.1/" xmlns:media="http://search.yahoo.com/mrss/">
<channel>
 <title>Getty</title>
 <link>http://www.gettyimg.com/</link>
 <atom:link href="http://www.gettyimg.com/" rel="self" type="application/rss+xml" />

 
                <item>
                <title><![CDATA[【Albums (lossy)】[REQ AUD] I AM: CELINE DION (Original Motion Picture Soundtrack) (Dolby Atmos or 360 Reality Audio)]]></title>
                <link><![CDATA[https://sharemania.us/threads/req-aud-i-am-celine-dion-original-motion-picture-soundtrack-dolby-atmos-or-360-reality-audio.247537/]]></link>
                <description><![CDATA[<article>
<blockquote class="messageText SelectQuoteContainer ugc baseHtml">
Would appreciate Dolby Atmos or RA360 of the album, thank you very much <img src="styles/default/xenforo/smilies/big_smile-48.png" class="mceSmilie" alt=":)" title="Smile    :)"><br>
<br>
<img src="https://cdn-p.smehost.net/sites/85d1df5b22b54b9ba9d6cddb43b351e8/wp-content/uploads/2024/05/CelineDion_WebSite_NewsPicture_1760x994-880x497.jpg" class="bbCodeImage LbImage" alt="[​IMG]" data-url="https://cdn-p.smehost.net/sites/85d1df5b22b54b9ba9d6cddb43b351e8/wp-content/uploads/2024/05/CelineDion_WebSite_NewsPicture_1760x994-880x497.jpg" style="">
<div class="messageTextEndMarker">&nbsp;</div>
</blockquote>
</article>]]></description>
                <author><![CDATA[mckldn]]></author>
                </item>

                
                <item>
                <title><![CDATA[【Apple Music】WEB-RiP - Henry Moodie - bad emotions 'Apple.Music.Web.4K-fstambuk']]></title>
                <link><![CDATA[https://sharemania.us/threads/henry-moodie-bad-emotions-apple-music-web-4k-fstambuk.247538/]]></link>
                <description><![CDATA[<article>
<blockquote class="messageText SelectQuoteContainer ugc baseHtml">
<div style="text-align: center"><img src="https://i.ibb.co/jvCmXzz/Henry-Moodie-bad-emotions-Apple-Music-Web-4-K-fstambuk-VTM.gif" class="bbCodeImage LbImage" alt="[​IMG]" data-url="https://i.ibb.co/jvCmXzz/Henry-Moodie-bad-emotions-Apple-Music-Web-4-K-fstambuk-VTM.gif" style=""><br>
​</div>
<div class="ToggleTriggerAnchor bbCodeSpoilerContainer">
<button type="button" class="button bbCodeSpoilerButton ToggleTrigger Tooltip JsOnly" data-target="> .SpoilerTarget"><span>Spoiler: <span class="SpoilerTitle">Apple Music</span></span></button>
<div class="SpoilerTarget bbCodeSpoilerText">
<div class="bbCodeBlock bbCodeCode">
<div class="type">Code:</div>
<pre>General
Complete name                            : Henry Moodie - bad emotions 'Apple.Music.Web.4K-fstambuk'.m4v
Format                                   : MPEG-4
Format profile                           : Base Media
Codec ID                                 : isom (isom/iso2/mp41)
File size                                : 487 MiB
Duration                                 : 3 min 16 s
Overall bit rate                         : 20.8 Mb/s
Frame rate                               : 25.000 FPS
Movie name                               : bad emotions (official video)
Performer                                : Henry Moodie
Genre                                    : Pop
ContentType                              : Music Video
Recorded date                            : 2024-06-23 07:00:00 UTC
Copyright                                : ℗ (P) 2024 Robots &amp; Humans/Columbia
Cover                                    : Yes
Rating                                   : None
GenreID                                  : 1614
AppleStoreCountry                        : United States
AlbumTitleID                             : 1632006177
AppleStoreCatalogID                      : 1753154979

Video
ID                                       : 1
Format                                   : HEVC
Format/Info                              : High Efficiency Video Coding
Format profile                           : Main 10@L5@High
Codec ID                                 : hvc1
Codec ID/Info                            : High Efficiency Video Coding
Duration                                 : 3 min 16 s
Bit rate                                 : 20.5 Mb/s
Width                                    : 3 840 pixels
Height                                   : 2 160 pixels
Display aspect ratio                     : 16:9
Frame rate mode                          : Constant
Frame rate                               : 25.000 FPS
Color space                              : YUV
Chroma subsampling                       : 4:2:0
Bit depth                                : 10 bits
Scan type                                : Progressive
Bits/(Pixel*Frame)                       : 0.099
Stream size                              : 480 MiB (99%)
Title                                    : Core Media Video
Color range                              : Limited
Color primaries                          : BT.709
Transfer characteristics                 : BT.709
Matrix coefficients                      : BT.709
Codec configuration box                  : hvcC

Audio
ID                                       : 2
Format                                   : AAC LC
Format/Info                              : Advanced Audio Codec Low Complexity
Codec ID                                 : 2 / 40 / mp4a-40-2
Duration                                 : 3 min 16 s
Bit rate mode                            : Constant
Bit rate                                 : 256 kb/s
Channel(s)                               : 2 channels
Channel layout                           : L R
Sampling rate                            : 48.0 kHz
Frame rate                               : 46.875 FPS (1024 SPF)
Compression mode                         : Lossy
Stream size                              : 5.99 MiB (1%)
Title                                    : Core Media Audio
Default                                  : Yes
Alternate group                          : 1

</pre>
</div><div style="text-align: center">​</div></div>
</div><div style="text-align: center"><br>
<div class="bbCodeBlock bbCodeVfcHH HiddenContent">
<div class="attribution type">Hidden Content:</div>
<blockquote>You must reply before you can see the hidden data contained here.</blockquote>
</div></div>
<div class="messageTextEndMarker">&nbsp;</div>
</blockquote>
</article>]]></description>
                <author><![CDATA[fstambuk]]></author>
                </item>

                </channel></rss>